<?xml version="1.0" standalone="no"?>
<!DOCTYPE svg PUBLIC "-//W3C//DTD SVG 20010904//EN"
 "http://www.w3.org/TR/2001/REC-SVG-20010904/DTD/svg10.dtd">
<svg version="1.0" xmlns="http://www.w3.org/2000/svg"
 width="512.000000pt" height="512.000000pt" viewBox="0 0 512.000000 512.000000"
 preserveAspectRatio="xMidYMid meet">
<metadata>
Created by potrace 1.11, written by Peter Selinger 2001-2013
</metadata>
<g transform="translate(0.000000,512.000000) scale(0.100000,-0.100000)"
fill="#000000" stroke="none">
<path d="M1828 5115 c-2 -1 -30 -6 -63 -9 -33 -4 -78 -12 -100 -18 -22 -5 -49
-12 -60 -14 -37 -7 -149 -50 -205 -78 -84 -43 -106 -81 -79 -140 14 -30 45
-43 124 -51 32 -4 62 -8 65 -10 3 -1 26 -6 52 -9 220 -30 587 -173 923 -361
179 -100 559 -363 653 -452 7 -7 23 -19 34 -28 l22 -15 -24 -47 c-28 -57 -37
-146 -20 -198 l12 -37 -1542 -1542 c-848 -848 -1554 -1562 -1569 -1587 -34
-54 -43 -86 -47 -162 -6 -139 67 -258 196 -323 47 -24 68 -28 141 -28 163 -2
18 -134 1763 1611 l1541 1543 40 -11 c57 -16 142 -7 197 21 27 13 49 22 51 19
2 -2 33 -40 68 -84 309 -384 571 -844 707 -1240 26 -76 70 -238 78 -290 3 -22
8 -47 9 -55 2 -8 6 -40 10 -70 10 -85 14 -98 37 -120 24 -22 68 -26 99 -10 23
13 69 101 109 211 16 43 29 80 28 82 -1 1 4 25 10 52 7 28 14 64 18 80 9 49
12 325 4 390 -5 33 -11 82 -15 109 -3 27 -15 88 -26 135 -93 395 -295 811
-578 1191 -31 41 -61 82 -68 91 -10 14 -8 22 13 45 67 75 87 196 47 283 -14
30 -85 109 -219 244 -230 230 -246 244 -311 261 -88 23 -173 4 -248 -58 l-30
-24 -85 64 c-47 36 -130 94 -185 130 -55 37 -112 75 -127 85 -15 11 -29 19
-32 19 -3 0 -29 14 -58 31 -280 167 -687 319 -946 354 -20 3 -53 8 -72 11 -37
7 -336 14 -342 9z"/>
</g>
</svg>
